<svg xmlns="http://www.w3.org/2000/svg" viewBox="0 0 1000 512" width="1000" height="512">
<title>Guhit</title><defs><filter id="crayon" x="-5%" y="-5%" width="110%" height="110%"><feTurbulence type="fractalNoise" baseFrequency="0.04" numOctaves="2" seed="7" result="n"/><feDisplacementMap in="SourceGraphic" in2="n" scale="3.5" xChannelSelector="R" yChannelSelector="G"/></filter></defs>
<g filter="url(#crayon)">
  <circle cx="277" cy="247" r="100" fill="#FFF8EE"/>
  <g fill="none" stroke-width="25" stroke-linecap="round">
    <line x1="167" y1="105" x2="203" y2="138" stroke="#FFC21A"/>
    <line x1="254" y1="70" x2="254" y2="117" stroke="#FFC21A"/>
    <line x1="352" y1="102" x2="322" y2="130" stroke="#FFC21A"/>
    <line x1="442" y1="200" x2="407" y2="227" stroke="#2F9BEA"/>
    <line x1="412" y1="262" x2="450" y2="272" stroke="#2F9BEA"/>
    <line x1="130" y1="247" x2="80" y2="260" stroke="#2F9BEA"/>
    <line x1="90" y1="189" x2="135" y2="213" stroke="#2F9BEA"/>
  </g>
  <path pathLength="100" d="M358,388 C346,406 322,400 314,374 C310,358 308,348 305,340 A97,97 0 1 0 249,154 A97,97 0 1 0 305,340 C282,364 232,398 168,408 C122,415 85,395 85,360 C85,330 110,313 135,313 C165,313 183,335 175,360 C170,378 152,390 128,392" fill="none" stroke="#F26B3A" stroke-width="27" stroke-linecap="round" stroke-linejoin="round"/>
  <circle cx="243" cy="243" r="12.5" fill="#1E1B2E"/>
  <circle cx="325" cy="238" r="12.5" fill="#1E1B2E"/>
  <path d="M272,261 Q287,284 304,260" fill="none" stroke="#1E1B2E" stroke-width="9" stroke-linecap="round" stroke-linejoin="round"/>
</g>
<svg x="500" y="128" width="480" height="248" viewBox="80 20 580 300"><path id="stroke" pathLength="100" fill="none" stroke="#1E1B2E" stroke-width="17" stroke-linecap="round" stroke-linejoin="round" d="M214,150 C190,138 124,142 122,192 C120,234 180,240 214,198 C216,235 218,265 204,282 C190,298 148,298 146,278 C145,262 180,248 222,228 C244,212 256,176 262,152 C264,195 268,226 296,226 C326,226 332,190 334,152 C335,190 336,212 342,222 C350,232 364,226 376,204 C392,168 410,116 416,72 C420,34 372,28 370,66 C366,112 364,175 366,222 C368,190 376,158 404,152 C434,146 442,190 440,212 C440,226 470,226 500,222 L540,222 C556,222 566,210 572,186 L582,92 L574,196 C572,228 604,232 626,206"/>
<g id="crayon-i">
  <path d="M488,150 H522 V212 Q522,224 510,224 H500 Q488,224 488,212 Z" fill="#FFC21A"/>
  <rect x="488" y="172" width="34" height="14" fill="#FFF8EE"/>
  <path d="M488,150 L505,106 L522,150 Z" fill="#F26B3A" stroke="#F26B3A" stroke-width="3" stroke-linejoin="round"/>
  <path d="M500,118 L505,106 L510,118 Z" fill="#1E1B2E"/>
</g>
<circle id="i-dot" cx="505" cy="72" r="11" fill="#F26B3A"/>
<path id="t-bar" fill="none" stroke="#1E1B2E" stroke-width="17" stroke-linecap="round" d="M548,148 C566,144 596,144 616,146"/>
</svg>
</svg>
